<svg width="29" height="29" viewBox="0 0 29 29" fill="none" xmlns="http://www.w3.org/2000/svg">
<path fill-rule="evenodd" clip-rule="evenodd" d="M27.1875 14.5C27.1875 14.7404 27.092 14.9709 26.9221 15.1408C26.7521 15.3108 26.5216 15.4063 26.2812 15.4063L4.90644 15.4063L10.6104 21.1084C10.7805 21.2786 10.8761 21.5094 10.8761 21.75C10.8761 21.9907 10.7805 22.2215 10.6104 22.3916C10.4402 22.5618 10.2094 22.6574 9.96875 22.6574C9.72809 22.6574 9.49729 22.5618 9.32712 22.3916L2.07713 15.1416C1.99273 15.0575 1.92577 14.9574 1.88008 14.8473C1.8344 14.7372 1.81088 14.6192 1.81088 14.5C1.81088 14.3808 1.8344 14.2628 1.88008 14.1527C1.92577 14.0426 1.99273 13.9426 2.07713 13.8584L9.32713 6.60839C9.49729 6.43822 9.72809 6.34262 9.96875 6.34262C10.2094 6.34262 10.4402 6.43822 10.6104 6.60839C10.7805 6.77856 10.8761 7.00936 10.8761 7.25001C10.8761 7.49067 10.7805 7.72147 10.6104 7.89164L4.90644 13.5938L26.2812 13.5938C26.5216 13.5938 26.7521 13.6892 26.9221 13.8592C27.092 14.0292 27.1875 14.2597 27.1875 14.5Z" fill="black"/>
</svg>
