<svg width="1040" height="639" viewBox="0 0 1040 639" fill="none" xmlns="http://www.w3.org/2000/svg">
<line x1="36" y1="0.00207515" x2="36" y2="638.002" stroke="#D060E5" stroke-width="2"/>
<line x1="383" y1="0.00207515" x2="383" y2="638.002" stroke="#D060E5" stroke-width="2"/>
<line x1="868" y1="0.00207515" x2="868" y2="638.002" stroke="#D060E5" stroke-width="2"/>
<line x1="105" y1="0.00207515" x2="105" y2="638.002" stroke="#D060E5" stroke-width="2"/>
<line x1="452" y1="0.00207515" x2="452" y2="638.002" stroke="#D060E5" stroke-width="2"/>
<line x1="937" y1="0.00207515" x2="937" y2="638.002" stroke="#D060E5" stroke-width="2"/>
<line x1="175" y1="0.00207515" x2="175" y2="638.002" stroke="#D060E5" stroke-width="2"/>
<line x1="521" y1="0.00207515" x2="521" y2="638.002" stroke="#D060E5" stroke-width="2"/>
<line x1="1007" y1="0.00207515" x2="1007" y2="638.002" stroke="#D060E5" stroke-width="2"/>
<line x1="244" y1="0.00207515" x2="244" y2="638.002" stroke="#D060E5" stroke-width="2"/>
<line x1="729" y1="0.00207515" x2="729" y2="638.002" stroke="#D060E5" stroke-width="2"/>
<line x1="591" y1="0.00207515" x2="591" y2="638.002" stroke="#D060E5" stroke-width="2"/>
<line x1="313" y1="0.00207515" x2="313" y2="638.002" stroke="#D060E5" stroke-width="2"/>
<line x1="799" y1="0.00207515" x2="799" y2="638.002" stroke="#D060E5" stroke-width="2"/>
<line x1="660" y1="0.00207515" x2="660" y2="638.002" stroke="#D060E5" stroke-width="2"/>
<line x1="-4.74859e-08" y1="320" x2="1040" y2="320" stroke="#D060E5" stroke-width="2"/>
<line x1="-4.74859e-08" y1="249" x2="1040" y2="249" stroke="#D060E5" stroke-width="2"/>
<line x1="-4.74859e-08" y1="178" x2="1040" y2="178" stroke="#D060E5" stroke-width="2"/>
<line x1="-4.74859e-08" y1="107" x2="1040" y2="107" stroke="#D060E5" stroke-width="2"/>
<line x1="-4.74859e-08" y1="36.0001" x2="1040" y2="36" stroke="#D060E5" stroke-width="2"/>
<line x1="-4.74859e-08" y1="604" x2="1040" y2="604" stroke="#D060E5" stroke-width="2"/>
<line x1="-4.74859e-08" y1="533" x2="1040" y2="533" stroke="#D060E5" stroke-width="2"/>
<line x1="-4.74859e-08" y1="462" x2="1040" y2="462" stroke="#D060E5" stroke-width="2"/>
<line x1="-4.74859e-08" y1="391" x2="1040" y2="391" stroke="#D060E5" stroke-width="2"/>
</svg>
