<svg width="1040" height="640" viewBox="0 0 1040 640" fill="none" xmlns="http://www.w3.org/2000/svg">
<line x1="1" y1="2.00012" x2="1.00003" y2="640" stroke="#D060E5" stroke-width="2"/>
<line x1="348" y1="2.00012" x2="348" y2="640" stroke="#D060E5" stroke-width="2"/>
<line x1="833" y1="2.00012" x2="833" y2="640" stroke="#D060E5" stroke-width="2"/>
<line x1="70" y1="2.00012" x2="70" y2="640" stroke="#D060E5" stroke-width="2"/>
<line x1="417" y1="2.00012" x2="417" y2="640" stroke="#D060E5" stroke-width="2"/>
<line x1="902" y1="2.00012" x2="902" y2="640" stroke="#D060E5" stroke-width="2"/>
<line x1="140" y1="2.00012" x2="140" y2="640" stroke="#D060E5" stroke-width="2"/>
<line x1="486" y1="2.00012" x2="486" y2="640" stroke="#D060E5" stroke-width="2"/>
<line x1="972" y1="2.00012" x2="972" y2="640" stroke="#D060E5" stroke-width="2"/>
<line x1="209" y1="2.00012" x2="209" y2="640" stroke="#D060E5" stroke-width="2"/>
<line x1="694" y1="2.00012" x2="694" y2="640" stroke="#D060E5" stroke-width="2"/>
<line x1="556" y1="2.00012" x2="556" y2="640" stroke="#D060E5" stroke-width="2"/>
<line x1="278" y1="2.00012" x2="278" y2="640" stroke="#D060E5" stroke-width="2"/>
<line x1="764" y1="2.00012" x2="764" y2="640" stroke="#D060E5" stroke-width="2"/>
<line x1="625" y1="2.00012" x2="625" y2="640" stroke="#D060E5" stroke-width="2"/>
<line x1="-4.74859e-08" y1="285" x2="1040" y2="285" stroke="#D060E5" stroke-width="2"/>
<line x1="-4.74859e-08" y1="214" x2="1040" y2="214" stroke="#D060E5" stroke-width="2"/>
<line x1="-4.74859e-08" y1="143" x2="1040" y2="143" stroke="#D060E5" stroke-width="2"/>
<line x1="-4.74859e-08" y1="72.0001" x2="1040" y2="72" stroke="#D060E5" stroke-width="2"/>
<line x1="-4.74859e-08" y1="1.00012" x2="1040" y2="0.999955" stroke="#D060E5" stroke-width="2"/>
<line x1="-4.74859e-08" y1="569" x2="1040" y2="569" stroke="#D060E5" stroke-width="2"/>
<line x1="-4.74859e-08" y1="498" x2="1040" y2="498" stroke="#D060E5" stroke-width="2"/>
<line x1="-4.74859e-08" y1="427" x2="1040" y2="427" stroke="#D060E5" stroke-width="2"/>
<line x1="-4.74859e-08" y1="356" x2="1040" y2="356" stroke="#D060E5" stroke-width="2"/>
</svg>
