<svg width="43" height="39" viewBox="0 0 43 39" fill="none" xmlns="http://www.w3.org/2000/svg">
<path fill-rule="evenodd" clip-rule="evenodd" d="M20.9249 1.00117C30.2152 0.904104 37.2587 6.86408 40.2307 13.8276C43.3308 21.091 42.7901 29.5582 35.1077 34.2315C26.8409 39.2603 14.988 39.2765 6.80981 34.1578C-0.553395 29.5492 0.130795 21.2541 3.12733 14.2152C5.99812 7.47167 11.9304 1.09514 20.9249 1.00117Z" fill="white" stroke="black" stroke-width="2"/>
<path d="M24.5337 13.6093L24.5338 13.6093L24.5336 13.6063C24.4969 12.9592 24.214 12.3507 23.7429 11.9056C23.2717 11.4604 22.6481 11.2125 22 11.2125C21.327 11.2125 20.6816 11.4798 20.2057 11.9557C19.7535 12.408 19.4896 13.0134 19.4645 13.65H15.625V13.6498L15.6182 13.6502L15.5417 13.6555L15.5416 13.6553L15.5349 13.6562C15.3763 13.678 15.2309 13.7564 15.1257 13.8771C15.0205 13.9977 14.9625 14.1524 14.9625 14.3125H14.9623L14.9627 14.3193L14.968 14.3958L14.9678 14.3959L14.9687 14.4026C14.9905 14.5612 15.0689 14.7066 15.1896 14.8118C15.3102 14.917 15.4649 14.975 15.625 14.975H15.625H16.1306L17.0825 24.649L17.0824 24.649L17.0829 24.6524L17.1001 24.7829L17.1001 24.7829L17.1006 24.7859C17.1832 25.2923 17.4433 25.7528 17.8342 26.0852C18.2252 26.4175 18.7216 26.6 19.2347 26.6H24.7652V26.6001L24.7687 26.5999L24.9007 26.5954L24.9007 26.5955L24.9036 26.5953C25.4155 26.5625 25.8991 26.3489 26.268 25.9925C26.6369 25.6362 26.8671 25.1603 26.9175 24.6498L26.9175 24.6498L27.8687 14.975H28.375V14.9752L28.3818 14.9748L28.4583 14.9695L28.4584 14.9697L28.4651 14.9688C28.6314 14.9459 28.7828 14.8608 28.8887 14.7306C28.9947 14.6004 29.0472 14.4348 29.0358 14.2673C29.0243 14.0999 28.9498 13.943 28.8271 13.8284C28.7045 13.7138 28.5429 13.6501 28.375 13.65H28.375H24.5348L24.5337 13.6093ZM17.4618 14.975H26.5367L25.5998 24.5163L25.5856 24.6058C25.5071 24.9912 25.1665 25.275 24.7652 25.275H19.2371L19.147 25.2707C18.9557 25.2506 18.7771 25.1651 18.6413 25.0287C18.5049 24.8917 18.4201 24.7117 18.4013 24.5193L18.4013 24.5192L17.4618 14.975ZM23.9695 17.4167L23.9697 17.4166L23.9688 17.4099C23.947 17.2513 23.8686 17.1059 23.7479 17.0007C23.6273 16.8955 23.4726 16.8375 23.3125 16.8375C23.1368 16.8375 22.9683 16.9073 22.844 17.0315C22.7198 17.1558 22.65 17.3243 22.65 17.5V22.75H22.6498L22.6502 22.7568L22.6555 22.8333L22.6553 22.8334L22.6562 22.8401C22.6791 23.0064 22.7642 23.1578 22.8944 23.2638C23.0246 23.3697 23.1902 23.4222 23.3577 23.4108C23.5251 23.3993 23.682 23.3248 23.7966 23.2021C23.9112 23.0795 23.9749 22.9179 23.975 22.75V22.75V17.5H23.9752L23.9748 17.4932L23.9695 17.4167ZM21.3445 17.4167L21.3447 17.4166L21.3438 17.4099C21.322 17.2513 21.2436 17.1059 21.1229 17.0007C21.0023 16.8955 20.8476 16.8375 20.6875 16.8375C20.5118 16.8375 20.3433 16.9073 20.219 17.0315C20.0948 17.1558 20.025 17.3243 20.025 17.5V22.75H20.0248L20.0252 22.7568L20.0305 22.8333L20.0303 22.8334L20.0312 22.8401C20.0541 23.0064 20.1392 23.1578 20.2694 23.2638C20.3996 23.3697 20.5652 23.4222 20.7327 23.4108C20.9001 23.3993 21.057 23.3248 21.1716 23.2021C21.2862 23.0795 21.3499 22.9179 21.35 22.75V22.75V17.5H21.3502L21.3498 17.4932L21.3445 17.4167ZM21.1787 12.8581C21.4025 12.6519 21.6957 12.5375 22 12.5375C22.3216 12.5375 22.63 12.6652 22.8574 12.8926C23.0611 13.0963 23.1848 13.365 23.2084 13.65H20.7918L20.7918 13.6482C20.8173 13.3457 20.9553 13.0638 21.1787 12.8581Z" fill="black" stroke="black" stroke-width="0.2"/>
</svg>
