<svg width="30" height="30" viewBox="0 0 30 30" fill="none" xmlns="http://www.w3.org/2000/svg">
<path d="M25.6777 12.9562H15.1964V17.2969H21.2339C20.6714 20.0625 18.3183 21.6469 15.1964 21.6469C13.4336 21.6469 11.7429 20.9466 10.4964 19.7001C9.24984 18.4535 8.54954 16.7629 8.54954 15C8.54954 13.2371 9.24984 11.5465 10.4964 10.2999C11.7429 9.05342 13.4336 8.35312 15.1964 8.35312C16.707 8.35525 18.1706 8.87843 19.3402 9.83437L22.612 6.5625C21.246 5.3578 19.608 4.50278 17.8386 4.07089C16.0692 3.639 14.2214 3.64317 12.454 4.08304C10.6865 4.5229 9.05233 5.38531 7.69177 6.59615C6.33121 7.807 5.28498 9.33008 4.64298 11.0345C4.00097 12.7389 3.78239 14.5738 4.00602 16.3813C4.22965 18.1889 4.8888 19.9151 5.92683 21.4117C6.96486 22.9083 8.35073 24.1305 9.96535 24.9732C11.58 25.816 13.3751 26.2541 15.1964 26.25C20.8214 26.25 25.9308 22.1625 25.9308 15C25.9252 14.3113 25.8403 13.6255 25.6777 12.9562Z" fill="white"/>
</svg>
